<svg xmlns="http://www.w3.org/2000/svg" xmlns:xlink="http://www.w3.org/1999/xlink" width="32" height="33" viewBox="0 0 32 33">
  <defs>
    <clipPath id="clip-custom_1">
      <rect width="32" height="33"/>
    </clipPath>
  </defs>
  <g id="custom_1" data-name="custom – 1" clip-path="url(#clip-custom_1)">
    <g id="like" transform="translate(0 -9.745)">
      <g id="Grupo_16" data-name="Grupo 16" transform="translate(0 20.971)">
        <g id="Grupo_15" data-name="Grupo 15">
          <path id="Caminho_23" data-name="Caminho 23" d="M5.224,167.256H1.045A1.088,1.088,0,0,0,0,168.379V188.6a1.086,1.086,0,0,0,1.045,1.123H5.224A1.087,1.087,0,0,0,6.268,188.6V168.379A1.088,1.088,0,0,0,5.224,167.256Z" transform="translate(0 -167.256)" fill="#c6c6c6"/>
        </g>
      </g>
      <g id="Grupo_18" data-name="Grupo 18" transform="translate(8.358 10.433)">
        <g id="Grupo_17" data-name="Grupo 17">
          <path id="Caminho_24" data-name="Caminho 24" d="M154.76,20.971c-.168-.031-8.046,0-8.046,0l1.1-3.227c.759-2.229.268-5.632-1.839-6.842a3.391,3.391,0,0,0-2.417-.383,1.762,1.762,0,0,0-1.065.858,4.961,4.961,0,0,0-.334,1.592,7.06,7.06,0,0,1-1.772,3.642c-1.622,1.7-6.661,6.607-6.661,6.607v17.97h17.412c2.35,0,3.889-2.819,2.73-5.023a3.554,3.554,0,0,0,1.045-4.493,3.554,3.554,0,0,0,1.045-4.493C158.341,25.539,157.545,21.477,154.76,20.971Z" transform="translate(-133.726 -10.433)" fill="#c6c6c6"/>
        </g>
      </g>
    </g>
  </g>
</svg>
