<svg xmlns="http://www.w3.org/2000/svg" xmlns:xlink="http://www.w3.org/1999/xlink" width="76" height="76" viewBox="0 0 76 76">
  <defs>
    <clipPath id="clip-custom_1">
      <rect width="76" height="76"/>
    </clipPath>
  </defs>
  <g id="custom_1" data-name="custom – 1" clip-path="url(#clip-custom_1)">
    <g id="padlock" transform="translate(0 -0.001)">
      <g id="Grupo_26" data-name="Grupo 26" transform="translate(0 0.001)">
        <g id="Grupo_25" data-name="Grupo 25">
          <path id="Caminho_32" data-name="Caminho 32" d="M138.351,161.485a3.949,3.949,0,0,0-1.971,7.373v4.393h3.942v-4.393a3.949,3.949,0,0,0-1.971-7.373Z" transform="translate(-100.351 -120.575)" fill="#8a8a8a"/>
          <path id="Caminho_33" data-name="Caminho 33" d="M132.251,85.849a6.03,6.03,0,0,0-6.023,6.023v6.414h12.046V91.872A6.03,6.03,0,0,0,132.251,85.849Z" transform="translate(-94.25 -64.1)" fill="#8a8a8a"/>
          <path id="Caminho_34" data-name="Caminho 34" d="M38,0A38,38,0,1,0,76,38,38,38,0,0,0,38,0ZM49.676,57.538H26.325a4.466,4.466,0,0,1-4.465-4.466V38.653a4.466,4.466,0,0,1,3.547-4.37v-6.51a12.593,12.593,0,1,1,25.187,0v6.51a4.467,4.467,0,0,1,3.547,4.37v14.42h0A4.466,4.466,0,0,1,49.676,57.538Z" transform="translate(0 -0.001)" fill="#8a8a8a"/>
        </g>
      </g>
    </g>
  </g>
</svg>
